<svg xmlns="http://www.w3.org/2000/svg" xmlns:xlink="http://www.w3.org/1999/xlink" id="Calque_2" viewBox="0.0 0.0 131.89 165.47" width="282.40180384728313" height="354.1053868553824"><defs><style>.cls-1,.cls-2{fill:none;}.cls-3{fill:#fff;}.cls-4{fill:#e40520;}.cls-5{fill:#123d88;}.cls-2{clip-path:url(#clippath);}</style><clipPath id="clippath"><rect class="cls-1" width="131.89" height="165.47"/></clipPath></defs><g id="svg34"><g class="cls-2"><path class="cls-3" d="m113.73,2.19v5.91h-11.94V2.19h-15.97v5.91h-11.93V2.19h-15.87v5.91h-11.93V2.19h-15.97v5.91h-11.94V2.19H2.19v31.08h3.83c3.95,0,7.16,3.21,7.16,7.15v99.93l1.25.54,50.69,21.85.82.35.82-.35,50.69-21.85,1.25-.54V40.42c0-3.94,3.21-7.15,7.16-7.15h3.83V2.19h-15.97Zm13.9,29.01h-1.76c-5.1,0-9.23,4.13-9.23,9.23v98.57l-50.69,21.85-50.69-21.85V40.42c0-5.1-4.13-9.23-9.23-9.23h-1.76V4.26h11.83v5.91h16.08v-5.91h11.83v5.91h16.08v-5.91h11.73v5.91h16.08v-5.91h11.83v5.91h16.08v-5.91h11.83v26.94Z"/><path class="cls-4" d="m127.63,4.26v26.94h-1.76c-5.1,0-9.23,4.13-9.23,9.23v98.57l-50.69,21.85-50.69-21.85V40.42c0-5.1-4.13-9.23-9.23-9.23h-1.76V4.26h11.83v5.91h16.08v-5.91h11.83v5.91h16.08v-5.91h11.73v5.91h16.08v-5.91h11.83v5.91h16.08v-5.91h11.83Z"/><path class="cls-5" d="m111.87,107.21H20.02v14.71h91.85v-14.71Z"/><path class="cls-5" d="m111.06,125.33H20.82v12.1h90.24v-12.1Z"/><path class="cls-3" d="m110.26,126.14v10.48H21.63v-10.48h88.63Zm1.61-1.61H20.02v13.71h91.85v-13.71Z"/><path class="cls-5" d="m117.77,14.61H14.11v14.46h103.66v-14.46Z"/><path class="cls-3" d="m116.97,15.42v12.85H14.92v-12.85h102.05Zm1.61-1.61H13.31v16.07h105.27V13.81Z"/><path class="cls-3" d="m100.38,114.37c-3.17,0-4.84-.76-6.31-1.43-1.39-.63-2.6-1.18-5.17-1.18s-3.77.55-5.17,1.18c-1.47.67-3.14,1.43-6.31,1.43s-4.84-.76-6.31-1.43c-1.39-.63-2.6-1.18-5.17-1.18s-3.77.55-5.17,1.18c-1.47.67-3.14,1.43-6.31,1.43s-4.84-.76-6.31-1.43c-1.39-.63-2.6-1.18-5.17-1.18s-3.77.55-5.17,1.18c-1.47.67-3.14,1.43-6.31,1.43s-4.84-.76-6.31-1.43c-1.39-.63-2.6-1.18-5.17-1.18v-2.76c3.17,0,4.84.76,6.31,1.43,1.39.63,2.6,1.18,5.17,1.18s3.77-.55,5.17-1.18c1.47-.67,3.14-1.43,6.31-1.43s4.84.76,6.31,1.43c1.39.63,2.6,1.18,5.17,1.18s3.77-.55,5.17-1.18c1.47-.67,3.14-1.43,6.31-1.43s4.84.76,6.31,1.43c1.39.63,2.6,1.18,5.17,1.18s3.77-.55,5.17-1.18c1.47-.67,3.14-1.43,6.31-1.43s4.84.76,6.31,1.43c1.39.63,2.6,1.18,5.17,1.18s3.77-.55,5.17-1.18c1.47-.67,3.14-1.43,6.31-1.43v2.76c-2.57,0-3.77.55-5.17,1.18-1.47.67-3.14,1.43-6.31,1.43Z"/><path class="cls-3" d="m100.38,120.13c-3.17,0-4.84-.76-6.31-1.43-1.39-.63-2.6-1.18-5.17-1.18s-3.77.55-5.17,1.18c-1.47.67-3.14,1.43-6.31,1.43s-4.84-.76-6.31-1.43c-1.39-.63-2.6-1.18-5.17-1.18s-3.77.55-5.17,1.18c-1.47.67-3.14,1.43-6.31,1.43s-4.84-.76-6.31-1.43c-1.39-.63-2.6-1.18-5.17-1.18s-3.77.55-5.17,1.18c-1.47.67-3.14,1.43-6.31,1.43s-4.84-.76-6.31-1.43c-1.39-.63-2.6-1.18-5.17-1.18v-2.76c3.17,0,4.84.76,6.31,1.43,1.39.63,2.6,1.18,5.17,1.18s3.77-.55,5.17-1.18c1.47-.67,3.14-1.43,6.31-1.43s4.84.76,6.31,1.43c1.39.63,2.6,1.18,5.17,1.18s3.77-.55,5.17-1.18c1.47-.67,3.14-1.43,6.31-1.43s4.84.76,6.31,1.43c1.39.63,2.6,1.18,5.17,1.18s3.77-.55,5.17-1.18c1.47-.67,3.14-1.43,6.31-1.43s4.84.76,6.31,1.43c1.39.63,2.6,1.18,5.17,1.18s3.77-.55,5.17-1.18c1.47-.67,3.14-1.43,6.31-1.43v2.76c-2.57,0-3.77.55-5.17,1.18-1.47.67-3.14,1.43-6.31,1.43Z"/><path class="cls-5" d="m65.94,157l36.84-15.47H29.1l36.84,15.47Z"/><path class="cls-4" d="m111.54,0v5.91h-7.56V0h-20.35v5.91h-7.56V0h-20.25v5.91h-7.56V0h-20.35v5.91h-7.56V0H0v35.46h6.02c2.74,0,4.97,2.23,4.97,4.97v101.37l1.95.84,51.73,22.29,1.28.55,1.28-.55,51.73-22.29,1.95-.84V40.42c0-2.74,2.23-4.97,4.97-4.97h6.02V0h-20.35Zm18.16,33.27h-3.83c-3.95,0-7.16,3.21-7.16,7.15v99.93l-1.25.54-50.69,21.85-.82.35-.82-.35-50.69-21.85-1.25-.54V40.42c0-3.94-3.21-7.15-7.16-7.15h-3.83V2.19h15.97v5.91h11.94V2.19h15.97v5.91h11.93V2.19h15.87v5.91h11.94V2.19h15.97v5.91h11.94V2.19h15.97v31.08Z"/><path class="cls-5" d="m111.87,32.49H20.02v72.1h91.85V32.49Z"/><path class="cls-3" d="m110.25,34.1v68.88H21.63V34.1h88.62Zm1.61-1.61H20.02v72.1h91.85V32.49Z"/><path class="cls-3" d="m91.16,83.23c-.16,1.07-2.44,2.83-3.18,3.48-.74.64-4.08,4.07-3.83,6.17.26,2.1-1.47,1.99-2.34,2.27-.87.28-1.1,1.94-1.67,2.06-.57.12-6.43.38-6.51-.46-.08-.84,1.67-1.39,3-2.5,1.34-1.11,1.88-1.8,2.48-2.58.6-.78.49-1.2,3.38-4.21,2.89-3.01.18-5.77.18-5.77-.99-.49-2.07-3.63-2.8-6.21,0,0,1.64-.82,2.5-1.22.19-.09.42-.06.58.09.45.43.89.87,1.34,1.3,1.63,1.48,3.38,2.84,5.21,4.07.02.84.18,1.81.77,2.31,1.17.98.89,1.2.89,1.2h0Z"/><path class="cls-3" d="m33.12,75.96c-.41.37.16,5.14,1.68,6.29,1.52,1.16.73,1.75.24,2.39-.49.64-.33,1.93-.33,1.93-.2.36-.75.66-1.24.87-.56.23-1.1.51-1.61.85-.95.62-1.86.82-1.86.82,0,0-1.31.26-.6-3.02.71-3.28.24-3.4-.64-5.7-.88-2.3-3.83-6.91-1.35-9.3,1.86-1.79,9.71-.62,13.5.07,1.27,3.9,5.15,6.44,6.63,7.18-5.89,3.28-12.8-3.85-14.43-2.38Z"/><path class="cls-3" d="m98.36,68.19c-.06,1.71,1.18,3.36,1.86,4.14-1.64.08-6.21.12-8.51-1.82-.82-.69-1.26-1.58-1.33-2.64-.25-3.71,3.6-6.71,11.43-8.91.33-.09.55-.15.66-.2,1.22-.46,2.01-1.27,2.18-2.21.12-.72-.14-1.45-.71-1.94-.38-.33-.97-.44-1.59-.44-1.09,0-2.31.35-2.75.49,1.09.91,1.87,1.95,2.39,3.65-.1.03-.21.06-.34.09-8.13,2.28-12.11,5.48-11.84,9.51.08,1.22.6,2.24,1.54,3.04,1.78,1.51,4.73,1.9,6.87,1.97.47,1.2,2.15,3.6,6.44,6.22,1.44.88-4.91,10.3-2.86,14.37,0,.01,0,.03.02.04.1.23,1.02,2.37-.15,2.86-1.21.5-1.78.55-2.63,2.93-.04.12-.14.21-.26.25-.81.22-3.94.93-6.53-.38-.24-.12-.28-.45-.08-.64.97-.86,3.35-3.1,3.84-4.88.62-2.24-.08-1.41,1.97-6.76,0,0,1.34-3.23-1.83-4.34-3.17-1.11-3.38-2.68-4.6-3.12-.4-.14-1.04-.17-1.89-.34-1.04-.84-2.07-1.68-3.06-2.53-1.48-1.16-2.71-2.62-4.32-3.61-.59-.34-1.27-.72-1.96-.87-.21-.04-.3.25-.11.34.28.13.54.29.79.46.37.24.61.41.91.65.11.09.09.27-.05.33-1.02.41-3.02,1.17-3.42,1.3-1.33.45-2.84,1.05-4.22,1.79-.3.17-.62.3-.91.46-7.29,4.02-14.06.45-14.64.38-.25-.03-.54.2-.44.43.58,1.34-.81,5.45.02,7.13.39.79.68,1.62.76,2.5.07.85.2,1.71.43,1.99.48.58,5.61,7.43,3.51,8.28-.04.02-.08.03-.11.06-.2.18-.97.88-1.29,1.75-.36,1,.37,2.16-6.5,1.78,0,0-1.27.08,1.17-3.15,1.41-1.86.64-4.39-.2-6.77-.82-2.32-2.97-2.11-3.62-6.34l-.02-.07c-.12-.4-.83-2.65-2.54-4.23-1.36-1.27-1.49-2.33-1.46-2.81,0-.14-.06-.27-.17-.35,0,0-.01-.01-.02-.01-.02-.02-.04-.03-.06-.04-1.01-.41-5.21-2.86-6.59-6.81-.5-1.81-.46-4.04.55-6.73,0,0,.79-2.05-1.46-5.92,0,0,0-.01-.01-.02-.07-.11-.75-1.15-.71-2.02.01-.24-.18-.46-.42-.42-.04,0-.09.02-.13.05-.24.17-2.4,2.84-2.63,4.1-.22,1.26-.54,1.05-1,1.47-.47.42-1.04.99-.15,1.94.75.8-.35,2.07-1.22,2.37-.23.08-.47-.06-.51-.29-.13-.67-.44-2.08-.81-2.08-.49,0-.75.03-.82,2.25,0,0,.14,1.25-1.95.47-2.08-.77-3.35-.85-3.32-2.63v-.03c-.02-.14-.14-1.1-.72-2.93-.63-1.99-.07-6.07-.93-9.37-.79-3.08-.03-6.66.52-7.84.06-.13.04-.27-.04-.39-.22-.3-.64-1.12-1.21-3.33-.06-.25.13-.5.39-.49.69.03,2.07.38,3.97,2.18.12.11.3.14.44.07.41-.21,1.33-.64,2.65-1.05l-.09-.73c-.44-.03-.74-.51-.93-1.13-.21-.73-.18-1.39.39-1.56.57-.16.95.38,1.17,1.11.19.63.19,1.21-.19,1.46l.32.65c1.01-.28,2.21-.54,3.56-.69l.06-.73c-.43-.11-.63-.64-.69-1.29-.07-.76.09-1.4.68-1.46.59-.05.86.55.93,1.31.06.66-.05,1.22-.47,1.4l.18.7c1.1-.09,2.3-.11,3.57-.02l.19-.72c-.4-.18-.51-.74-.45-1.39.07-.76.34-1.36.93-1.31.59.06.75.7.68,1.46-.06.66-.27,1.19-.71,1.3l.06.73c1.11.11,2.27.31,3.47.61l.29-.68c-.37-.24-.39-.81-.23-1.44.18-.74.54-1.29,1.12-1.16.57.15.63.8.45,1.54-.16.64-.45,1.14-.9,1.17l-.06.74c1.06.3,2.15.68,3.27,1.17l.42-.62c-.32-.3-.23-.87.03-1.46.31-.7.76-1.17,1.31-.93.54.25.48.9.17,1.6-.27.6-.64,1.04-1.1.99l-.19.71c.93.43,1.88.93,2.84,1.51l.55-.59c-.27-.35-.1-.89.26-1.44.41-.64.93-1.04,1.43-.72.49.33.33.96-.08,1.6-.36.55-.8.93-1.23.81l-.31.72c.88.56,1.77,1.18,2.67,1.88l.57-.54c-.24-.37-.04-.9.35-1.42.46-.61,1-.98,1.48-.63.47.36.27.99-.19,1.6-.4.53-.86.88-1.28.73l-.37.71c1.52,1.24,2.85,2.69,4.03,4.25.97,1.28,4.77,6.36,22,.19,1.9-.68,3.94-.92,5.96-.96,3.06-.06,6.74,1.18,9.7,3.33.24.21.42.38.57.51.47-.08,1.09-.24,1.87-.57,1.91-.79,7.21-1.31,8.93,2.13,1.36,2.72-3.45,6.3-6.96,8.92-.9.67-1.75,1.3-2.41,1.85-.82.68-1.25,1.52-1.28,2.47h0Z"/><path class="cls-3" d="m102.91,63.93c-.35,2.07-1.37,4.29-3.27,6.59-.4-.7-.73-1.52-.7-2.33.03-.79.39-1.47,1.07-2.05.64-.54,1.49-1.17,2.38-1.83.17-.13.35-.26.52-.39Z"/><path class="cls-3" d="m25,44.29s-1.62-.86-1.91-2.9c0,0,1.63-.1,1.91,1.1.28,1.19.49,1.49,0,1.8Z"/><path class="cls-5" d="m27.95,63.4s-.88,1.21,1.36,1.66v-.49s-.63-.87-1.36-1.17h0Z"/><path class="cls-5" d="m27.03,51.51c-.05-.29-.14-.75-.24-1.26,0,0,.2-.51.88-.88,0,0,1.27.7.68,1.55,0,0-.5.7-.73,1.02-.02.03-.51-.04-.58-.43h0Z"/><path class="cls-3" d="m41.84,92.26c.31-.24.67-.43,1.02-.56.22-.08.46.03.53.25.66,1.96.49,4.4.32,5.71-.04.29-.31.49-.61.44-.32-.04-.64-.03-.92,0-.25.03-.45-.18-.4-.43.29-1.41.38-3.2.05-5.43h0Zm1.98-.82h0c.26-.05.53.09.63.35.33.85.52,1.76.52,2.72,0,.81-.13,1.6-.37,2.33-.04.12-.22.09-.21-.04.12-1.5.12-3.62-.57-5.36h0Zm-.58-.46c-.55.14-1.2.39-1.73.81-.35-.19-1.08-.5-1.63-.12l-.06.05c-.64.76-1.78,1.78-2.34,1.66h-.02c-.26-.07-.58-.13-.96-.19-.29-.05-.5-.1-.66-.15-.43-.15-.53-.71-.18-1,1.89-1.59,4.49-2.33,5.98-2.66.72-.15,1.46.13,1.89.72v.02c.24.32.09.77-.29.87Zm-7.21,9.95c-.35-.31-1.58-1.34-3.1-1.61-.88-.15-1.42-.54-1.72-.85-.36-.57-.65-1.2-.84-1.87-.04-.15.14-.25.25-.14.15.15.31.31.49.47,0,0,.01.01.02.02,1.29,1.17,3.31,2.45,5.99,2.45.08,0,.17,0,.25,0-.12.34-.33.64-.61.84-.28.2-.52.45-.73.7h0Zm-5.05-4.94c-.31-.32-.55-.61-.72-.83-.12-.15-.18-.34-.19-.53v-.12c0-.43.04-.86.11-1.27.04-.24.35-.32.51-.14.37.41.78.81,1.22,1.18-.23.27-.61.82-.79,1.67-.01.07-.09.09-.14.04Zm6.51,2.83c-2.53.12-4.5-1.04-5.79-2.15-.06-.05-.08-.12-.08-.19.09-.88.42-1.45.65-1.74.04-.06.12-.06.18-.02,2.07,1.61,4.48,2.73,5.22,3.06-.08.39-.14.74-.18,1.04Zm.52-1.52c-.71-.31-5.04-2.28-7.15-4.89-.22-.27-.27-.65-.12-.97.14-.32.3-.61.48-.89.12-.2.41-.16.51.05.02.04.04.09.07.13.2.34.58.38.99.43.48.06,1.02.12,1.44.64.26.32.36.58.45.81.23.58.44.94,1.72,1.15,1.56.26,1.67.28,2.28,1.94.1.27.12.56.04.83-.11.36-.37.64-.7.76h0Zm3.33-8.45c-1.63.36-4.31,1.18-6.26,2.92-.06.05-.14.04-.19-.03-.06-.1-.13-.2-.22-.31-.07-.09-.14-.16-.21-.23-.21-.2-.23-.52-.06-.75,1.12-1.51,3.41-2.43,4.72-2.85.42-.14.88-.13,1.29.04.36.15.7.33,1.03.54.28.17.2.6-.12.67h0Zm-3.81-1.79c.12,0,.25,0,.37,0,.19,0,.23.27.05.34-1.55.61-3.54,1.67-4.38,3.3-.26-.07-.51-.1-.73-.13-.25-.03-.51-.06-.56-.15-.02-.03-.03-.06-.05-.1-.21-.48-.04-1.05.35-1.4,1.31-1.17,3.04-1.87,4.94-1.87Zm-4.7,12.83c1.43.25,2.63,1.29,2.85,1.5-.12.17-.34.25-.54.18-1.12-.38-2.31-1.68-2.31-1.68h0Zm3.9,2.03c-.3-.03-.45-.39-.25-.63.18-.21.39-.43.62-.6.52-.37.86-.97.94-1.64.04-.35.12-.76.21-1.24.45-.18.8-.54.98-1.01.16-.42.14-.9-.01-1.32-.16-.43-.28-.73-.41-.99-.21-.43-.1-.94.27-1.24.55-.44,1.01-.96,1.16-1.13.29-.16.78.05,1.04.19.56,3.82-.15,6.23-.86,7.58-.58,1.12-1.26,1.72-1.55,1.94-.44.08-.88.12-1.34.12-.27,0-.54-.01-.8-.04h0Zm3.29-.39c.48-.56,1.04-1.42,1.46-2.65.23-.08.82-.27,1.42-.23.34.03.52.43.29.69-.84.98-1.93,1.74-3.17,2.18h0Z"/><path class="cls-3" d="m21.02,25.59h-1.84v-7.38h1.84v7.38Z"/><path class="cls-3" d="m26.38,18.21c1.69,0,2.45,1.18,2.45,2.19s-.74,2.23-2.43,2.23h-1.46v2.97h-1.84v-7.38h3.29,0Zm-1.45,3.06h.85c.85,0,1.15-.3,1.15-.85,0-.63-.36-.85-1.35-.85h-.65v1.71h0Z"/><path class="cls-3" d="m35.31,20.12c-1.07-.48-1.71-.66-2.34-.66-.66,0-1.08.24-1.08.61,0,1.11,3.76.8,3.76,3.38,0,1.42-1.19,2.24-2.83,2.24-1.29,0-1.93-.34-2.66-.71v-1.59c1.06.7,1.71.95,2.52.95.7,0,1.08-.25,1.08-.68,0-1.21-3.76-.77-3.76-3.42,0-1.28,1.1-2.12,2.81-2.12.82,0,1.57.17,2.5.57v1.44h0Z"/><path class="cls-3" d="m40.36,25.68h-.79l-3.25-7.48h1.95l1.74,4.08,1.89-4.08h1.48l1.89,4.08,1.73-4.08h1.95l-3.24,7.48h-.79l-2.29-4.81-2.28,4.81Z"/><path class="cls-3" d="m51.99,25.59h-1.84v-7.38h1.84v7.38Z"/><path class="cls-3" d="m60.84,24.95c-1.03.53-1.81.74-2.9.74-2.87,0-4.3-1.86-4.3-3.76s1.61-3.81,4.44-3.81c1.03,0,1.95.22,2.67.65v1.64c-.81-.45-1.63-.76-2.54-.76-1.57,0-2.67.93-2.67,2.24s1.09,2.26,2.63,2.26c.96,0,1.61-.3,2.67-.81v1.61h0Z"/><path class="cls-3" d="m70.03,25.59h-1.84v-2.99h-3.68v2.99h-1.84v-7.38h1.84v2.97h3.68v-2.97h1.84v7.38Z"/><path class="cls-3" d="m82,19.56h-2.67v6.03h-1.84v-6.03h-2.67v-1.35h7.19v1.35Z"/><path class="cls-3" d="m86.94,25.68c-2.71,0-4.23-1.9-4.23-3.79,0-1.78,1.45-3.79,4.23-3.79s4.22,2.01,4.22,3.79c0,1.89-1.57,3.79-4.22,3.79Zm0-6.04c-1.41,0-2.34.9-2.34,2.25s.93,2.25,2.34,2.25,2.33-.9,2.33-2.25-.93-2.25-2.33-2.25Z"/><path class="cls-3" d="m95.54,25.68h-.79l-3.25-7.48h1.95l1.74,4.08,1.89-4.08h1.48l1.89,4.08,1.73-4.08h1.95l-3.24,7.48h-.79l-2.29-4.81-2.28,4.81Z"/><path class="cls-3" d="m112.76,25.59h-1.55l-4.08-4.73v4.73h-1.84v-7.38h1.69l3.94,4.51v-4.51h1.84v7.38Z"/><path class="cls-3" d="m29.62,129.52h-2.49v1.26h2.49v1.04h-2.49v2.32h-1.41v-5.65h3.9v1.04Z"/><path class="cls-3" d="m34.27,134.22c-2.07,0-3.24-1.46-3.24-2.9,0-1.37,1.11-2.9,3.24-2.9s3.23,1.54,3.23,2.9c0,1.45-1.2,2.9-3.23,2.9Zm0-4.62c-1.08,0-1.79.69-1.79,1.72s.71,1.72,1.79,1.72,1.78-.69,1.78-1.72-.71-1.72-1.78-1.72Z"/><path class="cls-3" d="m42.13,134.22c-2.07,0-3.24-1.46-3.24-2.9,0-1.37,1.11-2.9,3.24-2.9s3.23,1.54,3.23,2.9c0,1.45-1.2,2.9-3.23,2.9Zm0-4.62c-1.08,0-1.79.69-1.79,1.72s.71,1.72,1.79,1.72,1.78-.69,1.78-1.72-.71-1.72-1.78-1.72Z"/><path class="cls-3" d="m51.85,129.52h-2.05v4.62h-1.41v-4.62h-2.05v-1.04h5.5v1.04Z"/><path class="cls-3" d="m55.71,128.49c1.33,0,1.87.79,1.87,1.42,0,.47-.3.9-.77,1.13.8.21,1.2.79,1.2,1.45s-.35,1.66-2,1.66h-2.75v-5.65h2.45Zm-1.04,2.25h.74c.51,0,.72-.32.72-.61s-.21-.6-.72-.6h-.74v1.21h0Zm0,2.37h.8c.78,0,1.05-.21,1.05-.7,0-.41-.36-.64-.86-.64h-.99v1.33h0Z"/><path class="cls-3" d="m65.4,134.14h-1.52l-.47-1.12h-2.53l-.42,1.12h-1.49l2.28-5.65h1.63l2.51,5.65h0Zm-3.31-4.3l-.83,2.2h1.74l-.91-2.2Z"/><path class="cls-3" d="m71.03,134.14h-4.31v-5.65h1.41v4.62h2.9v1.04Z"/><path class="cls-3" d="m76.72,134.14h-4.31v-5.65h1.41v4.62h2.9v1.04Z"/><path class="cls-3" d="m86.41,133.65c-.79.41-1.38.56-2.22.56-2.2,0-3.29-1.43-3.29-2.89s1.23-2.92,3.4-2.92c.79,0,1.49.17,2.05.5v1.26c-.62-.35-1.25-.58-1.95-.58-1.2,0-2.05.71-2.05,1.72s.84,1.73,2.01,1.73c.74,0,1.23-.23,2.05-.62v1.23h0Z"/><path class="cls-3" d="m92.57,134.14h-4.31v-5.65h1.41v4.62h2.9v1.04Z"/><path class="cls-3" d="m99.42,128.49v3.21c0,1.87-1.28,2.52-2.83,2.52-1.64,0-2.83-.76-2.83-2.51v-3.22h1.41v3.25c0,.81.59,1.3,1.4,1.3.75,0,1.43-.39,1.43-1.4v-3.15h1.41,0Z"/><path class="cls-3" d="m103.82,128.49c1.33,0,1.87.79,1.87,1.42,0,.47-.3.9-.77,1.13.8.21,1.2.79,1.2,1.45s-.35,1.66-2,1.66h-2.75v-5.65h2.45Zm-1.04,2.25h.74c.51,0,.72-.32.72-.61s-.21-.6-.72-.6h-.74v1.21h0Zm0,2.37h.8c.78,0,1.05-.21,1.05-.7,0-.41-.36-.64-.86-.64h-.99v1.33h0Z"/></g></g></svg>